<svg width="16" height="16" viewBox="0 0 16 16" fill="none" xmlns="http://www.w3.org/2000/svg">
<g clip-path="url(#clip0_16_487)">
<path d="M8 0.5C8 0.367392 8.05268 0.240215 8.14645 0.146447C8.24021 0.0526784 8.36739 0 8.5 0L12.5 0C12.6326 0 12.7598 0.0526784 12.8536 0.146447C12.9473 0.240215 13 0.367392 13 0.5C13 0.632608 12.9473 0.759785 12.8536 0.853553C12.7598 0.947322 12.6326 1 12.5 1H11V15H12.5C12.6326 15 12.7598 15.0527 12.8536 15.1464C12.9473 15.2402 13 15.3674 13 15.5C13 15.6326 12.9473 15.7598 12.8536 15.8536C12.7598 15.9473 12.6326 16 12.5 16H8.5C8.36739 16 8.24021 15.9473 8.14645 15.8536C8.05268 15.7598 8 15.6326 8 15.5C8 15.3674 8.05268 15.2402 8.14645 15.1464C8.24021 15.0527 8.36739 15 8.5 15H10V1H8.5C8.36739 1 8.24021 0.947322 8.14645 0.853553C8.05268 0.759785 8 0.632608 8 0.5Z" fill="black"/>
<path fill-rule="evenodd" clip-rule="evenodd" d="M5.4601 4.31013C5.42192 4.21911 5.3577 4.1414 5.2755 4.08674C5.19331 4.03209 5.0968 4.00293 4.9981 4.00293C4.89939 4.00293 4.80288 4.03209 4.72069 4.08674C4.6385 4.1414 4.57428 4.21911 4.5361 4.31013L2.0361 10.3101C1.98504 10.4325 1.9847 10.5702 2.03515 10.6928C2.0856 10.8155 2.1827 10.9131 2.3051 10.9641C2.42749 11.0152 2.56516 11.0155 2.68781 10.9651C2.81046 10.9146 2.90804 10.8175 2.9591 10.6951L3.6641 9.00513H6.3341L7.0391 10.6951C7.09015 10.8175 7.18774 10.9146 7.31039 10.9651C7.43303 11.0155 7.5707 11.0152 7.6931 10.9641C7.81549 10.9131 7.9126 10.8155 7.96305 10.6928C8.01349 10.5702 8.01315 10.4325 7.9621 10.3101L5.4621 4.31013H5.4601ZM4.9981 5.80013L5.9151 8.00013H4.0851L5.0021 5.80013H4.9981Z" fill="black"/>
<path d="M8.49993 3C8.63254 3 8.75972 2.94732 8.85348 2.85355C8.94725 2.75979 8.99993 2.63261 8.99993 2.5C8.99993 2.36739 8.94725 2.24021 8.85348 2.14645C8.75972 2.05268 8.63254 2 8.49993 2H4.79993C3.11993 2 2.27993 2 1.63993 2.327C1.0768 2.61564 0.618568 3.07387 0.32993 3.637C0.00292972 4.279 0.00292969 5.117 0.00292969 6.797V9.197C0.00292969 10.877 0.00292972 11.717 0.32993 12.357C0.618568 12.9201 1.0768 13.3784 1.63993 13.667C2.28193 13.994 3.11993 13.994 4.79993 13.994H8.49993C8.63254 13.994 8.75972 13.9413 8.85348 13.8476C8.94725 13.7538 8.99993 13.6266 8.99993 13.494C8.99993 13.3614 8.94725 13.2342 8.85348 13.1404C8.75972 13.0467 8.63254 12.994 8.49993 12.994H4.79993C3.94293 12.994 3.35993 12.994 2.90993 12.956C2.47193 12.921 2.24693 12.856 2.09093 12.776C1.71462 12.5843 1.40867 12.2783 1.21693 11.902C1.13693 11.746 1.07193 11.522 1.03693 11.083C0.99993 10.633 0.99893 10.053 0.99893 9.193V6.793C0.99893 5.936 0.99993 5.353 1.03693 4.903C1.07293 4.465 1.13793 4.24 1.21693 4.084C1.40893 3.708 1.71493 3.402 2.09093 3.21C2.24693 3.13 2.47193 3.065 2.90993 3.03C3.35993 2.994 3.93993 2.993 4.79993 2.993H8.49993V3ZM12.4999 13C12.3678 13.0026 12.242 13.0568 12.1493 13.151C12.0566 13.2452 12.0044 13.3719 12.0039 13.504C12.0039 13.782 12.2299 14.007 12.5079 14C13.3709 13.98 13.9179 13.91 14.3679 13.682C14.9319 13.3945 15.3904 12.9359 15.6779 12.372C16.0049 11.73 16.0049 10.892 16.0049 9.212V6.812C16.0049 5.132 16.0049 4.292 15.6779 3.652C15.3904 3.08806 14.9319 2.62952 14.3679 2.342C13.9189 2.113 13.3729 2.044 12.5079 2.024C12.4421 2.02267 12.3766 2.03452 12.3153 2.05888C12.2541 2.08323 12.1984 2.11959 12.1514 2.1658C12.1045 2.21202 12.0672 2.26717 12.0419 2.328C12.0166 2.38883 12.0036 2.45411 12.0039 2.52C12.0039 2.795 12.2259 3.017 12.4999 3.024C12.7219 3.02867 12.9193 3.03833 13.0919 3.053C13.5299 3.088 13.7549 3.153 13.9109 3.233C14.2869 3.425 14.5929 3.731 14.7849 4.107C14.8649 4.263 14.9299 4.487 14.9649 4.926C15.0019 5.376 15.0029 5.956 15.0029 6.816V9.216C15.0029 10.073 15.0019 10.656 14.9649 11.106C14.9289 11.544 14.8639 11.769 14.7849 11.925C14.5932 12.3013 14.2872 12.6073 13.9109 12.799C13.7549 12.879 13.5299 12.944 13.0919 12.979C12.9186 12.9923 12.7213 13.0017 12.4999 13.007V13Z" fill="black"/>
</g>
<defs>
<clipPath id="clip0_16_487">
<rect width="16" height="16" fill="white"/>
</clipPath>
</defs>
</svg>
