<svg width="16" height="16" viewBox="0 0 16 16" fill="none" xmlns="http://www.w3.org/2000/svg">
<g clip-path="url(#clip0_19_491)">
<path d="M8 15.5C8 15.6326 7.94732 15.7598 7.85355 15.8536C7.75979 15.9473 7.63261 16 7.5 16H3.5C3.36739 16 3.24021 15.9473 3.14645 15.8536C3.05268 15.7598 3 15.6326 3 15.5C3 15.3674 3.05268 15.2402 3.14645 15.1464C3.24021 15.0527 3.36739 15 3.5 15H5L5 1H3.5C3.36739 1 3.24021 0.947322 3.14645 0.853554C3.05268 0.759786 3 0.632608 3 0.5C3 0.367392 3.05268 0.240214 3.14645 0.146446C3.24021 0.052678 3.36739 0 3.5 0H7.5C7.63261 0 7.75979 0.052678 7.85355 0.146446C7.94732 0.240214 8 0.367392 8 0.5C8 0.632608 7.94732 0.759786 7.85355 0.853554C7.75979 0.947322 7.63261 1 7.5 1H6L6 15H7.5C7.63261 15 7.75979 15.0527 7.85355 15.1464C7.94732 15.2402 8 15.3674 8 15.5Z" fill="black"/>
<path fill-rule="evenodd" clip-rule="evenodd" d="M11.4625 4.3072C11.4244 4.21618 11.3601 4.13847 11.2779 4.08381C11.1958 4.02916 11.0992 4 11.0005 4C10.9018 4 10.8053 4.02916 10.7231 4.08381C10.6409 4.13847 10.5767 4.21618 10.5385 4.3072L8.03854 10.3072C7.98748 10.4296 7.98714 10.5673 8.03759 10.6899C8.08804 10.8126 8.18514 10.9101 8.30754 10.9612C8.42994 11.0123 8.5676 11.0126 8.69025 10.9622C8.8129 10.9117 8.91048 10.8146 8.96154 10.6922L9.66654 9.0022H12.3365L13.0415 10.6922C13.0926 10.8146 13.1902 10.9117 13.3128 10.9622C13.4355 11.0126 13.5731 11.0123 13.6955 10.9612C13.8179 10.9101 13.915 10.8126 13.9655 10.6899C14.0159 10.5673 14.0156 10.4296 13.9645 10.3072L11.4645 4.3072H11.4625ZM11.0005 5.7972L11.9175 7.9972H10.0875L11.0045 5.7972H11.0005Z" fill="black"/>
<path d="M7.50007 13C7.36746 13 7.24028 13.0527 7.14652 13.1464C7.05275 13.2402 7.00007 13.3674 7.00007 13.5C7.00007 13.6326 7.05275 13.7598 7.14652 13.8536C7.24028 13.9473 7.36746 14 7.50007 14L11.2001 14C12.8801 14 13.7201 14 14.3601 13.673C14.9232 13.3844 15.3814 12.9261 15.6701 12.363C15.9971 11.721 15.9971 10.883 15.9971 9.203V6.803C15.9971 5.123 15.9971 4.283 15.6701 3.643C15.3814 3.07987 14.9232 2.62164 14.3601 2.333C13.7181 2.006 12.8801 2.006 11.2001 2.006L7.50007 2.006C7.36746 2.006 7.24028 2.05868 7.14652 2.15245C7.05275 2.24621 7.00007 2.37339 7.00007 2.506C7.00007 2.63861 7.05275 2.76579 7.14652 2.85955C7.24028 2.95332 7.36746 3.006 7.50007 3.006L11.2001 3.006C12.0571 3.006 12.6401 3.006 13.0901 3.044C13.5281 3.079 13.7531 3.144 13.9091 3.224C14.2854 3.41574 14.5913 3.72169 14.7831 4.098C14.8631 4.254 14.9281 4.478 14.9631 4.917C15.0001 5.367 15.0011 5.947 15.0011 6.807V9.207C15.0011 10.064 15.0001 10.647 14.9631 11.097C14.9271 11.535 14.8621 11.76 14.7831 11.916C14.5911 12.292 14.2851 12.598 13.9091 12.79C13.7531 12.87 13.5281 12.935 13.0901 12.97C12.6401 13.006 12.0601 13.007 11.2001 13.007L7.50007 13.007V13ZM3.50007 3C3.63218 2.99739 3.75804 2.9432 3.85072 2.84902C3.94341 2.75484 3.99557 2.62814 3.99607 2.496C3.99607 2.218 3.77007 1.993 3.49207 2C2.62907 2.02 2.08207 2.09 1.63207 2.318C1.06813 2.60552 0.609595 3.06406 0.32207 3.628C-0.00492987 4.27 -0.00492859 5.108 -0.00492859 6.788V9.188C-0.00492859 10.868 -0.00492987 11.708 0.32207 12.348C0.609595 12.9119 1.06813 13.3705 1.63207 13.658C2.08107 13.887 2.62707 13.956 3.49207 13.976C3.55795 13.9773 3.62343 13.9655 3.68465 13.9411C3.74588 13.9168 3.80162 13.8804 3.84858 13.8342C3.89554 13.788 3.93279 13.7328 3.95812 13.672C3.98345 13.6112 3.99635 13.5459 3.99607 13.48C3.99607 13.205 3.77407 12.983 3.50007 12.976C3.27807 12.9713 3.08074 12.9617 2.90807 12.947C2.47007 12.912 2.24507 12.847 2.08907 12.767C1.71307 12.575 1.40707 12.269 1.21507 11.893C1.13507 11.737 1.07007 11.513 1.03507 11.074C0.99807 10.624 0.99707 10.044 0.99707 9.184V6.784C0.99707 5.927 0.99807 5.344 1.03507 4.894C1.07107 4.456 1.13607 4.231 1.21507 4.075C1.40681 3.69869 1.71276 3.39274 2.08907 3.201C2.24507 3.121 2.47007 3.056 2.90807 3.021C3.0814 3.00767 3.27874 2.99833 3.50007 2.993V3Z" fill="black"/>
</g>
<defs>
<clipPath id="clip0_19_491">
<rect width="16" height="16" fill="white" transform="matrix(-1 0 0 -1 16 16)"/>
</clipPath>
</defs>
</svg>
