<svg width="305" height="300" viewBox="0 0 305 300" fill="none" xmlns="http://www.w3.org/2000/svg">
<g clip-path="url(#clip0_535_182)">
<path d="M90 150.351V174.999C90 194.296 105.703 209.999 125 209.999H149.648C164.355 209.999 178.144 204.257 188.554 193.905L291.209 91.2501C296.854 85.6056 300.018 78.0471 300.018 70.0586C300.018 31.4646 268.612 0.0585938 230.018 0.0585938C222.01 0.0585938 214.471 3.16404 208.827 8.86709L106.131 111.522C95.741 121.913 90.0375 135.721 90.0375 150.428L90 150.351ZM110 150.351C110 140.995 113.652 132.206 120.254 125.605L225.859 19.9996H230C257.558 19.9996 280 42.4411 280 69.9996V74.1402L174.395 179.745C167.793 186.347 159.004 189.999 149.649 189.999H125C116.758 189.999 110 183.241 110 174.999L110 150.351Z" fill="#FA7D4F"/>
<path d="M82.2049 297.149C100.506 300.196 121.052 300.04 140.895 299.942H152.399H164C182.301 300.098 199.606 300.196 217.81 297.149C257.205 290.606 288.105 259.259 294.605 219.139C295.465 213.983 296.148 208.846 296.812 203.69C297.164 200.936 296.305 198.241 294.469 196.132C292.574 193.983 289.762 192.733 286.91 192.733C281.852 192.733 277.613 196.581 276.969 201.679C276.324 206.874 275.562 212.03 274.723 217.187C269.567 247.988 245.719 272.127 215.368 277.247C172.321 284.493 128.608 284.551 85.5226 277.403C54.7216 272.247 30.5226 248.106 25.3676 217.303C21.8129 195.995 20.0161 174.295 20.0161 152.753C20.0161 131.21 21.8716 108.906 25.5241 87.4031C30.6801 57.0516 54.7821 33.2631 85.5841 28.1081C90.7401 27.2487 95.9356 26.5066 101.092 25.862C106.19 25.2175 110.038 20.9597 110.038 15.9205C110.038 13.0299 108.788 10.276 106.639 8.32301C104.53 6.42846 101.834 5.62772 99.0807 5.92067C93.9247 6.56522 88.7877 7.26832 83.6902 8.12772C43.5927 14.6317 12.2452 45.5302 5.64517 84.9227C1.95377 107.267 0.0396729 130.079 0.0396729 152.718C0.0396729 175.374 1.93422 198.226 5.64517 220.568C12.1882 259.826 42.9497 290.568 82.1902 297.113L82.2049 297.149Z" fill="#1E1E1E"/>
</g>
<defs>
<clipPath id="clip0_535_182">
<rect width="305" height="300.005" fill="white"/>
</clipPath>
</defs>
</svg>
