<svg width="320" height="320" viewBox="0 0 320 320" fill="none" xmlns="http://www.w3.org/2000/svg">
<path d="M135.02 267.52H170.43C172.422 267.52 174.316 266.739 175.723 265.333L308.027 133.028L308.067 133.008C320.606 120.254 320.606 99.8053 308.067 87.0513C302.012 80.9183 293.77 77.4808 285.157 77.5003H285.059H285.078C276.426 77.4613 268.125 80.8988 262.031 87.0313L129.746 219.336L129.727 219.317C128.321 220.723 127.539 222.637 127.539 224.629V260.02C127.52 262.012 128.321 263.926 129.727 265.332C131.133 266.739 133.047 267.52 135.02 267.52ZM272.62 97.6354H272.639C275.92 94.3346 280.413 92.4794 285.081 92.4989H285.139H285.12C289.729 92.4793 294.163 94.3348 297.405 97.5964C304.163 104.491 304.182 115.545 297.424 122.44L285.061 134.804L260.256 109.999L272.62 97.6354ZM142.52 227.735L249.65 120.605L274.454 145.41L167.324 252.52H142.52V227.735Z" fill="#88825F"/>
<path d="M72.5 92.5H172.5C176.641 92.5 180 89.1406 180 85C180 80.8594 176.641 77.5 172.5 77.5H72.5C68.3594 77.5 65 80.8594 65 85C65 89.1406 68.3594 92.5 72.5 92.5Z" fill="#88825F"/>
<path d="M164.705 160C164.705 155.859 161.346 152.5 157.205 152.5H72.5C68.3594 152.5 65 155.859 65 160C65 164.141 68.3594 167.5 72.5 167.5H157.205C161.346 167.5 164.705 164.141 164.705 160Z" fill="#88825F"/>
<path d="M72.5 227.5C68.3594 227.5 65 230.859 65 235C65 239.141 68.3594 242.5 72.5 242.5H105C109.141 242.5 112.5 239.141 112.5 235C112.5 230.859 109.141 227.5 105 227.5H72.5Z" fill="#88825F"/>
<path d="M60 317.5H185C216.739 317.461 242.46 291.739 242.5 260V237.793C242.5 233.652 239.141 230.293 235 230.293C230.859 230.293 227.5 233.652 227.5 237.793V260C227.481 283.457 208.457 302.481 185 302.5H60C36.543 302.481 17.5195 283.457 17.5 260V60C17.5196 36.543 36.543 17.5195 60 17.5H177.5V40C177.52 55.176 189.824 67.4805 205 67.5H227.5V82.207C227.5 86.3476 230.859 89.707 235 89.707C239.141 89.707 242.5 86.3476 242.5 82.207V60C242.5 58.0078 241.699 56.1134 240.293 54.7071L190.293 4.70705C188.887 3.3008 186.992 2.5 185 2.5H60C28.2615 2.53906 2.54 28.2615 2.5 60V260C2.53906 291.739 28.2615 317.46 60 317.5ZM192.5 40V28.1055L216.895 52.5H205C198.106 52.5 192.5 46.8945 192.5 40Z" fill="#F77F00"/>
</svg>
